<?xml version="1.0" encoding="UTF-8" standalone="no"?>
<svg version="1.1" xmlns="http://www.w3.org/2000/svg" xmlns:xlink="http://www.w3.org/1999/xlink" width="263.36" height="277.76">
	<path id="G_key_drawn_by_Adam_Stanislav" transform="matrix(1,0,0,1,-17.6733,-373.396)" fill="black" d="M 147.155,506.06 C 147.183,518.891 152.976,537.156 149.993,546.527 C 140.057,544.879 122.277,536.088 129.141,523.889 C 133.821,516.761 140.373,511.116 147.155,506.06 Z M 216.753,483.045 C 236.679,482 258.025,497.151 258.043,518.185 C 256.876,531.444 244.541,540.08 232.655,543.435 C 214.855,550.269 196.388,555.184 177.82,559.425 C 170.575,545.356 191.224,546.449 198.117,538.345 C 209.048,532.292 198.471,537.048 193.307,539.007 C 188.395,540.951 183.483,542.895 178.571,544.837 C 182.856,542.289 207.527,528.545 200.485,532.103 C 190.335,534.827 171.005,550.963 173.32,531.061 C 173.779,519.116 165.004,501.387 172.296,493.075 C 186.449,487.463 201.384,482.899 216.753,483.045 Z M 145.195,482.943 C 147.235,494.103 147.877,504.161 134.975,507.621 C 122.852,516.007 108.651,524.875 103.339,539.291 C 104.2,551.453 118.024,558.717 128.763,561.269 C 137.291,566.02 154.107,551.979 154.4,564.107 C 122.565,569.064 87.7667,573.829 57.5387,559.679 C 47.7053,555.217 35.5667,543.792 43.7693,532.473 C 56.6133,513.375 80.5227,508.165 100.32,499.301 C 115.145,493.489 130.181,488.247 145.195,482.943 Z M 192.216,388.804 C 209.141,388.277 216.716,407.267 215.469,421.617 C 214.064,438.275 202.956,455.092 186.353,459.72 C 178.487,461.344 162.851,474.06 166.308,458.092 C 165.368,435.897 162.481,410.74 178.083,392.505 C 180.992,388.641 187.863,389.456 192.216,388.804 Z M 212.657,373.299 C 192.877,373.349 176.427,385.901 160.623,396.219 C 142.979,411.839 141.029,437.441 143.579,459.417 C 145.128,468.968 146.288,478.183 134.165,478.831 C 98.404,491.689 63.0933,507.084 32.2493,529.548 C 22.644,536.428 11.668,550.575 21.2853,561.868 C 36.66,579.819 62.3093,582.628 84.5347,583.224 C 108.663,583.305 132.515,578.805 156.081,574.075 C 160.983,600.004 166.813,625.973 175.976,650.741 C 179.096,652.827 184.517,646.42 188.585,645.005 C 191.512,641.832 201.664,640.428 198.751,635.824 C 190.043,614.168 184.427,591.377 179.557,568.591 C 212.436,560.596 244.519,547.319 271.32,526.455 C 283.835,517.051 283.827,498.836 274.437,487.26 C 261.385,467.316 234.303,465.228 213.213,470.927 C 197.591,474.743 182.669,481.028 168.433,488.439 C 165.856,478.579 167.761,471.58 178.927,470.175 C 195.695,460.525 214.801,453.229 227.592,438.132 C 241.931,421.745 243.339,393.24 226.324,378.284 C 222.392,375.431 217.601,373.216 212.657,373.299 Z "/>
</svg>